<svg width="61" height="61" viewBox="0 0 61 61" fill="none" xmlns="http://www.w3.org/2000/svg">
<!--    <path d="M30.0914 53.5134C23.7633 53.5134 17.8102 51.029 13.3571 46.5759C8.90393 42.1228 6.41956 36.1697 6.41956 29.8415C6.41956 23.5134 8.90393 17.5603 13.3571 13.1072C17.8102 8.65404 23.7633 6.16966 30.0914 6.16966C36.4196 6.16966 42.3727 8.65404 46.8258 13.1072C56.0602 22.3415 56.0602 37.3415 46.8258 46.5759C42.3727 51.029 36.4196 53.5134 30.0914 53.5134ZM30.0914 8.98216C24.5133 8.98216 19.2633 11.1384 15.3258 15.0759C11.3883 19.0134 9.23206 24.2634 9.23206 29.8415C9.23206 35.4197 11.3883 40.6697 15.3258 44.6072C19.2633 48.5447 24.5133 50.7009 30.0914 50.7009C35.6696 50.7009 40.9196 48.5447 44.8571 44.6072C53.0133 36.4509 53.0133 23.2322 44.8571 15.0759C40.9196 11.1384 35.6696 8.98216 30.0914 8.98216Z" fill="black"/>-->
    <path d="M41.5683 20.22L20.4877 41.3001L18.6314 39.4439L39.712 18.3637L41.5683 20.22Z" fill="black"/>
    <path d="M19.3102 20.8884L21.1852 19.0603L41.5758 39.4509L39.7008 41.3259L19.3102 20.8884Z" fill="black"/>
</svg>
