<svg width="175" height="175" viewBox="0 0 175 175" fill="none" xmlns="http://www.w3.org/2000/svg">
    <path d="M122.91 60.1498C114.22 49.5698 101.27 43.3898 87.57 43.2998C86.17 43.2998 84.73 43.2998 83.27 43.4998C67.4 45.5198 53.76 55.7098 47.3 70.3398L48.07 70.6998L47.28 70.3398C45.02 75.9798 43.82 81.9798 43.74 88.0498C43.83 96.8898 46.51 105.51 51.45 112.84L53.16 113.49L54.15 113.87C48.64 106.4 45.6 97.4098 45.45 88.1298C45.56 82.2698 46.75 76.4898 48.97 71.0698C55.14 57.0098 68.21 47.1898 83.43 45.1798C84.83 45.0398 86.22 44.9798 87.58 44.9798C100.8 45.1098 113.28 51.0898 121.65 61.3198C127.95 68.9198 131.36 78.4898 131.3 88.3598C131.33 92.8198 130.63 97.2498 129.23 101.48C124.36 115.04 113.44 125.55 99.71 129.9L99.96 130.78L99.67 129.92C96.39 130.92 92.98 131.42 89.55 131.41C78.44 131.48 67.71 127.38 59.49 119.92L58.05 120.89C66.62 128.86 77.9 133.27 89.6 133.22C93.19 133.27 96.77 132.77 100.21 131.76C114.39 127.27 125.68 116.44 130.77 102.46C132.3 97.9498 133.06 93.2198 133.02 88.4598C133.11 78.1198 129.53 68.0898 122.91 60.1498Z" fill="#EB2127"/>
    <path d="M67.8301 116H84.1701V110.5H67.8301V116Z" fill="#EB2127"/>
    <path d="M76.3301 76.9398C76.7301 77.2198 77.1001 77.5298 77.4601 77.8598C77.5501 77.9398 77.6201 78.0299 77.6901 78.1299C77.6301 78.5799 77.3901 78.9898 77.0101 79.2598C76.8201 79.4198 76.6101 79.5699 76.4001 79.7099H76.2001C75.5601 80.0599 75.3001 80.8498 75.6101 81.5098C75.8401 81.9598 76.3001 82.2398 76.8001 82.2298C77.0001 82.2398 77.2101 82.1898 77.3901 82.0898C77.9101 81.8198 78.4001 81.4899 78.8301 81.0999C79.7701 80.3299 80.3301 79.1999 80.3901 77.9899V77.7399C80.2201 76.8399 79.7101 76.0299 78.9701 75.4899C78.0001 74.6299 76.7201 73.9099 75.8401 73.2399C75.4401 72.9699 75.0801 72.6498 74.7601 72.2898C74.6901 72.1998 74.6201 72.0998 74.5601 71.9998C74.5401 71.9298 74.5401 71.8498 74.5601 71.7698C75.2501 70.8298 76.1001 70.0098 77.0601 69.3598C77.6001 68.9498 78.1201 68.5198 78.6201 68.0498C78.8501 67.8298 79.0701 67.5798 79.2701 67.3298C79.5201 66.9798 79.6601 66.5598 79.6801 66.1398C79.6301 65.1198 79.1201 64.1698 78.2801 63.5698C77.5601 63.0298 76.7501 62.5998 75.9101 62.0798C75.2601 61.7398 74.4601 61.9998 74.1201 62.6498C73.8201 63.2298 73.9901 63.9498 74.5201 64.3398C75.4201 64.8798 76.2101 65.3299 76.6401 65.6699L77.0001 65.9899C76.8201 66.1699 76.5301 66.4398 76.1701 66.7298C75.4501 67.3398 74.4601 68.0599 73.6201 68.8499C72.6401 69.6299 72.0201 70.7598 71.8801 72.0098C71.9601 72.9998 72.4401 73.9099 73.2101 74.5299C74.2201 75.3899 75.2801 76.1899 76.3901 76.9199L76.3301 76.9398Z" fill="#EB2127"/>
    <path d="M68.49 75.9696C68.9 76.2396 69.28 76.5496 69.62 76.8896C69.71 76.9596 69.79 77.0597 69.85 77.1597C69.78 77.6097 69.54 78.0196 69.17 78.2896C68.99 78.4596 68.78 78.6097 68.56 78.7397H68.36C67.7 79.0597 67.43 79.8597 67.75 80.5197C67.98 80.9797 68.45 81.2797 68.97 81.2697C69.17 81.2697 69.37 81.2197 69.56 81.1297C70.08 80.8697 70.55 80.5296 70.98 80.1396C71.93 79.3796 72.51 78.2497 72.56 77.0297V76.7797C72.39 75.8797 71.88 75.0697 71.14 74.5297C70.17 73.6697 68.89 72.9497 67.98 72.2797C67.6 71.9997 67.25 71.6796 66.92 71.3296C66.85 71.2396 66.78 71.1396 66.72 71.0396C66.71 70.9696 66.71 70.8997 66.72 70.8397C67.42 69.8997 68.29 69.0796 69.27 68.4296C69.83 67.9796 70.37 67.5496 70.83 67.1196C71.07 66.8896 71.28 66.6397 71.48 66.3797C71.73 66.0297 71.87 65.6096 71.89 65.1896C71.83 64.1496 71.29 63.1997 70.43 62.6197C69.71 62.0797 68.9 61.6497 68.06 61.1297C67.41 60.7897 66.61 61.0497 66.27 61.6997C65.97 62.2797 66.14 62.9996 66.67 63.3896C67.57 63.9296 68.36 64.3796 68.79 64.7196L69.15 65.0396C68.89 65.2996 68.61 65.5396 68.32 65.7596C67.6 66.3696 66.61 67.1096 65.77 68.0096C64.8 68.7796 64.18 69.9096 64.03 71.1396C64.11 72.1296 64.58 73.0496 65.34 73.6896C66.33 74.5896 67.59 75.3596 68.54 76.0796L68.49 75.9696Z" fill="#EB2127"/>
    <path d="M83.65 75.9999C84.01 76.3299 84.35 76.6899 84.64 77.0799L84.82 77.3699C84.68 77.8099 84.37 78.1699 83.96 78.3799C83.75 78.5199 83.54 78.6399 83.31 78.7399H83.08C82.39 78.9599 82.01 79.6899 82.23 80.3799C82.24 80.3999 82.24 80.4099 82.25 80.4299C82.41 80.8999 82.82 81.2499 83.31 81.3299C83.51 81.3699 83.72 81.3699 83.92 81.3299C84.47 81.1399 84.99 80.8799 85.48 80.5599C86.53 79.9299 87.25 78.8899 87.49 77.6999C87.5 77.6299 87.5 77.5499 87.49 77.4699C87.5 76.5199 87.11 75.6099 86.43 74.9499C85.6 73.9799 84.49 73.0799 83.66 72.2199C83.31 71.8899 83.01 71.5299 82.74 71.1399C82.68 71.0399 82.63 70.9299 82.58 70.8199C82.57 70.7499 82.57 70.6799 82.58 70.6199C83.41 69.7999 84.36 69.1199 85.4 68.5899C86.03 68.2299 86.64 67.8899 87.16 67.5299C87.42 67.3399 87.67 67.1299 87.9 66.8999C88.2 66.5899 88.4 66.1999 88.46 65.7699C88.56 64.7299 88.16 63.7099 87.38 63.0199C86.75 62.3699 86.01 61.8299 85.26 61.1899C84.71 60.7199 83.89 60.7899 83.42 61.3399C83.41 61.3499 83.4 61.3599 83.39 61.3699C82.92 61.9299 82.99 62.7699 83.55 63.2399C84.36 63.9199 85.08 64.4599 85.47 64.8599C85.59 64.9599 85.68 65.0899 85.76 65.2199C85.47 65.4499 85.16 65.6499 84.84 65.8299C84.03 66.3299 82.97 66.8899 82.02 67.5699C80.91 68.1799 80.1 69.2099 79.77 70.4299C79.7 71.4199 80.04 72.3899 80.69 73.1299C81.57 74.1199 82.51 75.0699 83.51 75.9499L83.65 75.9999Z" fill="#EB2127"/>
    <path d="M100.37 116H110.92V111.49H100.37V116Z" fill="#EB2127"/>
    <path d="M85.5701 116H99.1601V111H85.5701V116Z" fill="#EB2127"/>
    <path d="M116.29 91.8599C116.22 92.6199 116.1 93.3699 115.95 94.1099C114.92 99.0499 112.32 103.52 108.54 106.87C107.98 107.37 107.39 107.84 106.8 108.29C104.48 109.72 102.02 110.9 99.4499 111.81C98.9499 111.95 98.4099 112.04 97.8899 112.13C99.9299 112.77 102.06 113.1 104.2 113.1C108.38 113.08 112.47 111.83 115.94 109.49C116.24 109.43 116.51 109.25 116.68 108.99C117.22 108.58 117.76 108.16 118.26 107.71C121.69 104.72 124.06 100.69 125.02 96.2399C125.31 94.7999 125.46 93.3399 125.45 91.8699L116.29 91.8599Z" fill="#EB2127"/>
    <path d="M103.06 89.1797C102.97 90.0697 102.84 90.9597 102.65 91.8397C101.58 97.0197 98.9501 101.74 95.1001 105.36L94.5101 105.92C94.0101 106.35 93.5001 106.75 92.9501 107.18H92.7901C92.4701 107.49 92.0901 107.75 91.6901 107.95C91.2701 108.22 90.8301 108.47 90.3801 108.69H90.2601C88.4801 109.8 86.5701 110.7 84.5801 111.35H84.1301C86.5701 112.2 89.1401 112.64 91.7201 112.63C93.3901 112.61 95.0501 112.41 96.6801 112.02C97.2001 112.02 97.7401 111.84 98.2401 111.7C100.56 111.03 102.76 109.99 104.75 108.64C105.67 108.08 106.54 107.42 107.32 106.68C111.11 103.34 113.72 98.8697 114.76 93.9197C114.9 93.2197 115.01 92.5197 115.1 91.6697C115.2 90.7797 115.25 89.8797 115.26 88.9897L103.06 89.1797Z" fill="#EB2127"/>
    <path d="M76.0101 107.93H75.8301H75.5601C64.7901 107.93 56.9701 102.34 54.8501 92.15C54.6701 91.28 55.2201 90.43 56.0901 90.23C56.9401 90.05 57.7801 90.6 57.9501 91.46C57.9501 91.47 57.9501 91.48 57.9601 91.5C59.1901 98.36 64.7801 103.6 71.7101 104.39H72.5001C73.5201 104.54 74.5401 104.61 75.5601 104.62C76.4301 104.62 77.1401 105.33 77.1401 106.2C77.1401 106.21 77.1401 106.22 77.1401 106.22C77.1301 106.91 76.6701 107.5 76.0101 107.68V107.93ZM50.1001 86.54C50.1001 100.8 61.6601 112.37 75.9301 112.37C75.9601 112.37 75.9901 112.37 76.0201 112.37C78.3001 112.37 80.5801 112.06 82.7801 111.45H83.2301C85.1801 110.75 87.0801 109.89 88.9101 108.9C88.9601 108.91 89.0201 108.91 89.0701 108.9C89.0701 108.9 89.9501 108.45 90.3801 108.16L91.4801 107.39C91.5301 107.38 91.5901 107.38 91.6401 107.39C92.1601 106.96 92.7001 106.56 93.2001 106.13L93.7601 105.57C97.5901 101.99 100.24 97.32 101.33 92.18C101.51 91.3 101.65 90.41 101.74 89.52C101.83 88.64 101.88 87.76 101.88 86.88L50.1001 86.54Z" fill="#EB2127"/>
    <path d="M121.45 35.8996L120.41 35.2496L119.19 37.1896L120.18 37.8196C120.4 37.9296 120.64 38.0196 120.88 38.0896C121.07 38.1696 121.28 38.1696 121.47 38.0896C121.67 37.9796 121.84 37.8296 121.97 37.6396C122.15 37.3896 122.22 37.0796 122.17 36.7796C122.12 36.5396 121.87 36.1696 121.45 35.8996ZM35.4499 59.0696C35.1899 58.8996 34.8699 58.8496 34.5699 58.9096C34.2399 59.0696 33.9799 59.3496 33.8499 59.6996L33.2899 60.7996L35.3199 61.8396L35.8599 60.7996C35.9399 60.5596 36.0099 60.3196 36.0599 60.0796C36.0999 59.8796 36.0599 59.6796 35.9499 59.5196C35.8299 59.3196 35.6599 59.1596 35.4499 59.0696ZM71.9599 141.71C71.3899 141.52 70.7699 141.62 70.2899 141.98C69.6299 142.57 69.1799 143.36 69.0099 144.23C68.6999 145.04 68.6399 145.92 68.8499 146.75C69.2599 147.78 70.4299 148.28 71.4599 147.87C71.5899 147.82 71.7099 147.75 71.8299 147.68C72.4699 147.07 72.9199 146.29 73.1099 145.43C73.4199 144.67 73.4599 143.83 73.2499 143.04C73.0699 142.41 72.5799 141.91 71.9599 141.71ZM146.62 75.2496C146.71 75.4196 146.87 75.5496 147.05 75.6096C147.27 75.6696 147.5 75.6696 147.73 75.6096C148.03 75.5496 148.31 75.3796 148.5 75.1396C148.65 74.7896 148.65 74.3996 148.5 74.0596L148.23 72.8896L145.98 73.4096L146.25 74.5596C146.34 74.7996 146.47 75.0296 146.62 75.2496ZM108.31 141.22C107.8 140.88 107.15 140.81 106.57 141.04C106 141.23 105.55 141.68 105.38 142.26C105.24 143.09 105.36 143.95 105.72 144.72C105.9 145.6 106.37 146.39 107.05 146.97C108.01 147.55 109.25 147.25 109.84 146.29C109.91 146.18 109.96 146.07 110 145.95C110.15 145.05 110.03 144.13 109.66 143.29C109.47 142.47 109.01 141.74 108.35 141.22H108.31ZM129.63 43.2996C128.82 43.5696 128.1 44.0696 127.56 44.7396C126.92 45.2896 126.46 46.0196 126.23 46.8396C126.11 47.3896 126.29 47.9696 126.7 48.3496C127.09 48.7496 127.67 48.9096 128.21 48.7796C129.1 48.4996 129.89 47.9596 130.46 47.2196C131.07 46.6896 131.5 45.9796 131.7 45.1896C131.86 44.2996 131.26 43.4396 130.37 43.2796C130.15 43.2396 129.93 43.2496 129.72 43.2996H129.63ZM144.43 45.7096C131.27 27.5196 110.92 19.7696 95.5699 17.9696C72.9199 15.8196 50.5999 24.5696 35.4399 41.5396C23.6499 55.0596 17.2899 72.4796 17.6199 90.4196C17.8299 96.6596 18.7999 102.85 20.4999 108.85C22.4299 114.56 25.0599 120.01 28.3199 125.08C28.3199 125.08 29.7399 107.88 31.5399 104.37C39.8799 108.22 48.0599 111.49 48.0599 111.49C38.3699 94.9896 39.7799 74.2296 51.5999 59.1796C67.7399 38.9696 97.1999 35.6696 117.42 51.7996C132.91 64.1696 138.94 84.9496 132.46 103.68C132.46 103.68 129.58 115.96 115.81 126.22C107.62 132.26 97.6699 135.43 87.4999 135.23C87.4999 135.23 67.5099 134.91 53.9199 120.09L53.6299 119.86L56.9399 117.61C56.9399 117.61 50.4499 115.36 44.4799 113.1C38.5099 110.84 33.2099 108.23 33.2099 108.23C33.2099 108.23 31.8799 117.51 31.4699 122C31.0599 126.48 30.5699 135.97 30.5699 135.97L33.9099 133.72C58.8699 163.72 103.44 167.81 133.44 142.84C136.17 140.57 138.73 138.09 141.09 135.43C149.08 126.48 154.6 115.61 157.14 103.88C161.65 83.5496 157.57 63.9796 144.43 45.7096ZM24.9899 95.6696L24.5199 88.2096L26.9099 88.0496L27.2299 92.7196H29.0099L28.6899 88.3696L30.9399 88.2296L31.2099 92.5596L33.4599 92.4196L33.1899 87.5096L35.7399 87.3696L36.2099 94.9396L24.9899 95.6696ZM36.4399 80.1196L32.6499 81.4696L36.0299 83.7196L35.6699 86.8096L30.1699 82.9596L24.5099 85.2096L24.8499 82.1696L28.4799 80.9996L25.2299 79.0396L25.5699 76.0396L30.6599 79.3496L36.7699 77.0996L36.4399 80.1196ZM37.0899 76.1496L26.4299 72.8596L27.7799 68.3496C27.9599 67.5096 28.5199 66.8096 29.2899 66.4296C30.1499 66.1096 31.0899 66.1096 31.9499 66.4296C32.8699 66.6696 33.6699 67.2296 34.1999 68.0096C34.6699 68.8196 34.7299 69.7996 34.3799 70.6696L33.9499 72.1296L37.9399 73.3496L37.0899 76.1496ZM42.5199 62.3596L38.7799 62.1096C38.4499 62.0396 38.1199 62.0396 37.7899 62.1096C37.5499 62.1996 37.3599 62.3796 37.2499 62.6096V62.8096L41.3099 64.9096L39.9599 67.4296L29.8899 62.2896L32.1399 58.1696C32.4099 57.5596 32.7899 57.0096 33.2699 56.5496C33.6699 56.2196 34.1699 56.0396 34.6899 56.0296C35.3299 56.0196 35.9599 56.1796 36.5199 56.4996C37.0199 56.7396 37.4599 57.0796 37.7999 57.5096C38.0899 57.8896 38.2799 58.3296 38.3599 58.7896C38.4399 59.1496 38.4399 59.5196 38.3599 59.8696C38.5699 59.6896 38.8099 59.5396 39.0599 59.4196L39.7999 59.2996C40.0599 59.2796 40.3299 59.2796 40.5899 59.2996L44.1099 59.5896L42.5199 62.3596ZM44.5499 58.8696L35.5399 52.1096L40.0499 46.1796L41.9699 47.6396L39.1299 51.3596L40.5499 52.4396L43.1899 48.9896L45.0199 50.3896L42.4499 53.7496L44.2099 55.0996L47.1399 51.2696L49.1499 52.8296L44.5499 58.8696ZM54.3099 47.5996C54.0699 48.3196 53.6299 48.9496 53.0499 49.4296C52.2799 50.3196 51.1399 50.8196 49.9599 50.7796C48.9599 50.5896 48.0399 50.0996 47.3199 49.3796L49.1199 47.4396C49.4299 47.7396 49.7999 47.9596 50.1999 48.0896C50.6899 48.2396 51.2099 48.1096 51.5699 47.7496C51.8399 47.5396 51.9899 47.2296 51.9999 46.8896C52.0399 46.2696 51.5699 45.7296 50.9399 45.6996C50.4099 45.7296 49.8999 45.8896 49.4499 46.1696C48.5999 46.6896 47.6099 46.9596 46.6099 46.9396C45.8199 46.8796 45.0799 46.5096 44.5599 45.8996C44.1699 45.4796 43.8899 44.9696 43.7499 44.4096C43.5699 43.8496 43.5699 43.2496 43.7499 42.6996C44.0199 41.9896 44.4799 41.3596 45.0799 40.8696C45.7199 40.1696 46.6099 39.7396 47.5599 39.6796C48.5099 39.7196 49.4099 40.1296 50.0599 40.8296L48.2599 42.7196C47.9699 42.4496 47.5999 42.2696 47.1999 42.2196C46.8599 42.1996 46.5299 42.3296 46.2999 42.5796C45.8999 42.8596 45.7999 43.3996 46.0799 43.7996C46.1099 43.8396 46.1399 43.8696 46.1699 43.9096C46.2999 44.0196 46.4699 44.0896 46.6399 44.1096C46.9799 44.0896 47.3199 43.9796 47.6099 43.7896C48.4299 43.3296 49.3099 42.9696 50.2199 42.7296C50.7799 42.6296 51.3599 42.6896 51.8899 42.8896C52.4299 43.0996 52.8999 43.4296 53.2899 43.8596C53.7699 44.3696 54.1199 44.9896 54.2999 45.6596C54.4799 46.2596 54.4699 46.9096 54.2799 47.5096L54.3099 47.5996ZM61.7699 42.3296C61.3999 42.9796 60.8599 43.5296 60.2099 43.9096C59.2999 44.6696 58.0799 44.9596 56.9199 44.6996C55.9999 44.3396 55.2099 43.6996 54.6699 42.8696L56.7699 41.2696C57.0299 41.6096 57.3599 41.8996 57.7399 42.0996C58.1699 42.3596 58.7099 42.3596 59.1399 42.0996C59.4399 41.9296 59.6599 41.6296 59.7299 41.2896C59.8499 40.6996 59.4799 40.1196 58.8999 39.9596C58.3699 39.8896 57.8399 39.9596 57.3399 40.1596C56.4099 40.5196 55.3899 40.6196 54.4099 40.4296C53.6299 40.2296 52.9699 39.7196 52.5599 39.0296C52.2499 38.5496 52.0599 37.9996 52.0199 37.4296C51.9699 36.8396 52.0999 36.2596 52.3799 35.7396C52.7799 35.0896 53.3399 34.5596 53.9999 34.1796C54.7499 33.6096 55.6999 33.3396 56.6399 33.4396C57.5599 33.6496 58.3699 34.1996 58.8899 34.9996L56.7899 36.5796C56.5399 36.2596 56.1999 36.0196 55.8199 35.8796C55.4799 35.8096 55.1299 35.8996 54.8499 36.1096C54.6099 36.2396 54.4399 36.4596 54.3799 36.7196C54.3299 36.9496 54.3799 37.1796 54.5199 37.3696C54.6099 37.5296 54.7699 37.6296 54.9499 37.6596C55.2899 37.6996 55.6299 37.6496 55.9399 37.5196C56.8199 37.1896 57.7499 36.9896 58.6899 36.9296C59.2699 36.9096 59.8399 37.0596 60.3399 37.3596C60.8199 37.6696 61.2299 38.0796 61.5299 38.5496C61.8999 39.1396 62.1399 39.8096 62.2099 40.5096C62.2299 41.1196 62.0799 41.7196 61.7599 42.2496L61.7699 42.3296ZM90.2099 32.8396C89.2099 34.2496 87.2599 34.5896 85.8399 33.5896C85.5499 33.3796 85.2999 33.1296 85.0899 32.8396C84.3399 31.9396 83.9399 30.8096 83.9599 29.6396C83.9399 28.4996 84.3099 27.3796 85.0199 26.4796C85.5899 25.6396 86.5299 25.1296 87.5399 25.1096C88.5599 25.1196 89.5199 25.5896 90.1499 26.3896C90.8799 27.2896 91.2699 28.4296 91.2499 29.5896C91.3099 30.7696 90.9399 31.9196 90.2099 32.8396ZM57.3799 145.14L59.6299 141.2L56.6799 139.46L54.4299 143.43L51.7299 141.85L57.3899 132.09L60.0899 133.67L57.9899 137.07L60.9599 138.81L62.9399 135.38L65.6399 136.96L59.9799 146.72L57.3799 145.14ZM76.0999 146.24C75.8199 147.33 75.2999 148.34 74.5899 149.21C73.9899 149.88 73.2099 150.37 72.3399 150.61C71.3799 150.82 70.3799 150.77 69.4599 150.45C68.5299 150.16 67.6899 149.65 66.9999 148.96C66.3899 148.34 65.9799 147.56 65.8099 146.71C65.6399 145.58 65.7399 144.43 66.1299 143.35C66.4699 141.83 67.3999 140.51 68.6999 139.65C69.9499 138.93 71.4599 138.79 72.8199 139.29C74.1899 139.63 75.3499 140.53 76.0199 141.77C76.5799 143.2 76.5799 144.8 76.0199 146.23H76.0999V146.24ZM88.2099 144.66L85.0299 144.41L84.3299 152.86L81.1999 152.61L81.9199 144.14L78.7399 143.87L78.9699 141.1L88.4599 141.89L88.2099 144.66ZM98.9099 146.92C98.2299 147.7 97.2599 148.17 96.2299 148.2L94.5199 148.4L95.0199 152.57L91.7999 153L90.4699 141.73L95.6499 141.1C96.5799 140.93 97.5299 141.15 98.2899 141.71C98.9799 142.34 99.3899 143.21 99.4399 144.14C99.6499 145.11 99.4699 146.13 98.9199 146.96V146.92H98.9099ZM113.13 145.43C113.04 146.35 112.67 147.21 112.07 147.91C111.43 148.67 110.58 149.22 109.64 149.51C108.72 149.87 107.73 149.99 106.76 149.87C105.91 149.69 105.12 149.27 104.51 148.65C103.7 147.86 103.1 146.87 102.77 145.79C102.2 144.34 102.2 142.73 102.77 141.28C103.36 139.95 104.51 138.95 105.9 138.53C107.25 137.98 108.78 138.03 110.09 138.67C111.39 139.49 112.35 140.75 112.77 142.23C113.13 143.28 113.25 144.4 113.13 145.5V145.43ZM120.5 144.3L115.99 137.04L113.29 138.71L111.83 136.34L119.97 131.36L121.41 133.75L118.84 135.49L123.35 142.72L120.5 144.3ZM150.88 74.1696C151.07 74.8096 151.13 75.4896 151.06 76.1496C150.98 76.6596 150.72 77.1296 150.32 77.4596C149.84 77.8696 149.27 78.1596 148.65 78.2896C148.11 78.4096 147.55 78.4096 147 78.2896C146.53 78.1996 146.09 77.9896 145.72 77.6796C145.45 77.4396 145.23 77.1596 145.07 76.8496C145.03 77.1196 144.95 77.3896 144.82 77.6396C144.7 77.8596 144.54 78.0496 144.35 78.1996C144.18 78.4096 143.98 78.5896 143.76 78.7396L140.9 80.7896L140.18 77.7496L143.2 75.4996C143.49 75.3296 143.73 75.0996 143.92 74.8196C144.01 74.5896 144.01 74.3296 143.92 74.0996V73.8496L139.41 74.8896L138.78 72.1596L149.73 69.6096L150.88 74.1696ZM122.01 40.3696C121.65 40.3996 121.29 40.3496 120.95 40.2296C121.12 40.4496 121.25 40.6896 121.33 40.9496C121.36 41.1996 121.36 41.4496 121.33 41.6896C121.35 41.9596 121.35 42.2296 121.33 42.4996L120.72 45.9696L118.06 44.2996L118.65 40.5796C118.7 40.2496 118.7 39.9196 118.65 39.5896C118.58 39.3496 118.42 39.1396 118.2 38.9996L118 38.8596L115.57 42.7396L113.32 41.2496L119.31 31.7196L123.19 34.2696C123.77 34.5896 124.29 35.0296 124.7 35.5496C125 35.9696 125.14 36.4796 125.11 36.9896C124.98 38.1996 124.34 39.2996 123.35 40.0096C122.95 40.2796 122.5 40.4296 122.02 40.4596V40.3696H122.01ZM127.26 51.3896C126.4 51.2296 125.61 50.8096 125.01 50.1696C124.35 49.5596 123.87 48.7796 123.61 47.9196C123.44 47.1396 123.47 46.3196 123.72 45.5496C124.14 44.4996 124.78 43.5596 125.59 42.7796C126.57 41.5996 127.93 40.7996 129.44 40.5296C130.75 40.3496 132.06 40.8196 132.96 41.7896C133.97 42.6596 134.52 43.9496 134.42 45.2796C134.21 46.7796 133.48 48.1596 132.35 49.1796C131.62 50.0196 130.72 50.6896 129.71 51.1596C128.94 51.5096 128.09 51.6296 127.25 51.4996L127.26 51.3896ZM130.89 56.8196L137.83 51.9696L136.21 49.7196L138.46 48.1196L143.31 55.0596L141.06 56.6596L139.44 54.4096L132.48 59.0796L130.89 56.8196ZM134.31 61.7096L145.87 59.9996L147.13 62.7496L138.3 70.5296L137.08 67.8696L138.59 66.6996L137.28 63.8196L135.39 64.1996L134.31 61.7096ZM145.27 115.23C144.83 116.13 144 116.77 143.02 116.97C141.89 117.24 140.7 117.09 139.66 116.56C138.62 116.11 137.76 115.31 137.23 114.31C136.77 113.4 136.77 112.32 137.23 111.4C137.66 110.5 138.5 109.85 139.48 109.66C141.81 109.17 144.19 110.31 145.27 112.43C145.67 113.29 145.7 114.27 145.27 115.11V115.23ZM145.88 87.2396L141.17 87.4196V84.6496L145.88 84.4496L152.28 80.6896L152.3 83.8696L148.56 85.8096L152.44 87.4996L152.64 90.4996L145.88 87.2396ZM31.1699 69.2096C30.8599 69.0996 30.5299 69.0996 30.2199 69.2096C29.8699 69.3896 29.6299 69.7196 29.5699 70.1096L29.3199 70.8796L31.7299 71.6196L31.9299 70.9696C32.1099 70.5896 32.1099 70.1496 31.9299 69.7796C31.7699 69.4896 31.4899 69.2696 31.1599 69.1896L31.1699 69.2096ZM96.0699 143.81C95.6999 143.58 95.2499 143.51 94.8299 143.61H93.9499L94.2399 146.11H95.0099C95.4899 146.12 95.9499 145.94 96.2899 145.61C96.4999 145.35 96.5799 145.01 96.5399 144.69C96.4999 144.34 96.3299 144.03 96.0699 143.81ZM143.91 62.5396L139.83 63.3496L140.64 65.1496L143.91 62.5396Z" fill="#EB2127"/>
    <path d="M88.2701 14C47.2001 14.05 13.9501 47.39 14.0001 88.47C14.0201 103.87 18.8201 118.88 27.7401 131.44L27.9901 128.94C5.80006 95.71 14.7401 50.79 47.9601 28.6C81.1801 6.41001 126.11 15.35 148.3 48.57C170.49 81.79 161.55 126.72 128.33 148.91C98.3401 168.94 58.1801 163.83 34.1701 136.91L32.8001 137.83C60.1201 168.5 107.13 171.22 137.8 143.9C168.47 116.58 171.19 69.57 143.87 38.9C129.73 23.05 109.51 13.99 88.2701 14Z" fill="#EB2127"/>
</svg>
