<?xml version="1.0" encoding="utf-8"?>
<!-- Generator: Adobe Illustrator 26.3.1, SVG Export Plug-In . SVG Version: 6.00 Build 0)  -->
<svg version="1.1" id="Layer_1" xmlns="http://www.w3.org/2000/svg" xmlns:xlink="http://www.w3.org/1999/xlink" x="0px" y="0px"
	 viewBox="0 0 500 195" style="enable-background:new 0 0 500 195;" xml:space="preserve">
<style type="text/css">
	.st0{fill:#EB2127;}
</style>
<path class="st0" d="M109.65,68.85L109.65,68.85C100.96,58.27,88.01,52.09,74.31,52c-1.4,0-2.84,0-4.3,0.2l0,0
	C54.14,54.22,40.5,64.41,34.04,79.04l0.77,0.36l-0.79-0.36c-2.26,5.64-3.46,11.64-3.54,17.71c0.09,8.84,2.77,17.46,7.71,24.79
	l1.71,0.65l0,0l0.99,0.38l0,0c-5.51-7.47-8.55-16.46-8.7-25.74c0.11-5.86,1.3-11.64,3.52-17.06c6.17-14.06,19.24-23.88,34.46-25.89
	l0,0c1.4-0.14,2.79-0.2,4.15-0.2c13.22,0.13,25.7,6.11,34.07,16.34l0,0c6.3,7.6,9.71,17.17,9.65,27.04
	c0.03,4.46-0.67,8.89-2.07,13.12l0,0c-4.87,13.56-15.79,24.07-29.52,28.42l0.25,0.88l-0.29-0.86c-3.28,1-6.69,1.5-10.12,1.49
	c-11.11,0.07-21.84-4.03-30.06-11.49l-1.44,0.97c8.57,7.97,19.85,12.38,31.55,12.33c3.59,0.05,7.17-0.45,10.61-1.46l0,0
	c14.18-4.49,25.47-15.32,30.56-29.3l0,0c1.53-4.51,2.29-9.24,2.25-14C119.85,86.82,116.27,76.79,109.65,68.85z"/>
<polygon class="st0" points="54.57,124.7 70.91,124.7 70.91,119.2 54.57,119.2 54.57,124.7 "/>
<path class="st0" d="M63.07,85.64c0.4,0.28,0.77,0.59,1.13,0.92c0.09,0.08,0.16,0.17,0.23,0.27l0,0c-0.06,0.45-0.3,0.86-0.68,1.13
	c-0.19,0.16-0.4,0.31-0.61,0.45h-0.2l0,0c-0.64,0.35-0.9,1.14-0.59,1.8c0.23,0.45,0.69,0.73,1.19,0.72c0.2,0.01,0.41-0.04,0.59-0.14
	c0.52-0.27,1.01-0.6,1.44-0.99c0.94-0.77,1.5-1.9,1.56-3.11v-0.25c-0.17-0.9-0.68-1.71-1.42-2.25c-0.97-0.86-2.25-1.58-3.13-2.25
	c-0.4-0.27-0.76-0.59-1.08-0.95c-0.07-0.09-0.14-0.19-0.2-0.29l0,0c-0.02-0.07-0.02-0.15,0-0.23c0.69-0.94,1.54-1.76,2.5-2.41
	c0.54-0.41,1.06-0.84,1.56-1.31c0.23-0.22,0.45-0.47,0.65-0.72c0.25-0.35,0.39-0.77,0.41-1.19c-0.05-1.02-0.56-1.97-1.4-2.57
	c-0.72-0.54-1.53-0.97-2.37-1.49c-0.65-0.34-1.45-0.08-1.79,0.57c-0.3,0.58-0.13,1.3,0.4,1.69l0,0c0.9,0.54,1.69,0.99,2.12,1.33
	l0.36,0.32c-0.18,0.18-0.47,0.45-0.83,0.74c-0.72,0.61-1.71,1.33-2.55,2.12c-0.98,0.78-1.6,1.91-1.74,3.16
	c0.08,0.99,0.56,1.9,1.33,2.52c1.01,0.86,2.07,1.66,3.18,2.39L63.07,85.64z"/>
<path class="st0" d="M55.23,84.67c0.41,0.27,0.79,0.58,1.13,0.92c0.09,0.07,0.17,0.17,0.23,0.27l0,0c-0.07,0.45-0.31,0.86-0.68,1.13
	c-0.18,0.17-0.39,0.32-0.61,0.45h-0.2l0,0c-0.66,0.32-0.93,1.12-0.61,1.78c0.23,0.46,0.7,0.76,1.22,0.75c0.2,0,0.4-0.05,0.59-0.14
	c0.52-0.26,0.99-0.6,1.42-0.99c0.95-0.76,1.53-1.89,1.58-3.11v-0.25c-0.17-0.9-0.68-1.71-1.42-2.25c-0.97-0.86-2.25-1.58-3.16-2.25
	c-0.38-0.28-0.73-0.6-1.06-0.95c-0.07-0.09-0.14-0.19-0.2-0.29l0,0c-0.01-0.07-0.01-0.14,0-0.2c0.7-0.94,1.57-1.76,2.55-2.41
	c0.56-0.45,1.1-0.88,1.56-1.31c0.24-0.23,0.45-0.48,0.65-0.74c0.25-0.35,0.39-0.77,0.41-1.19c-0.06-1.04-0.6-1.99-1.46-2.57
	c-0.72-0.54-1.53-0.97-2.37-1.49c-0.65-0.34-1.45-0.08-1.79,0.57c-0.3,0.58-0.13,1.3,0.4,1.69l0,0c0.9,0.54,1.69,0.99,2.12,1.33
	l0.36,0.32c-0.26,0.26-0.54,0.5-0.83,0.72c-0.72,0.61-1.71,1.35-2.55,2.25c-0.97,0.77-1.59,1.9-1.74,3.13
	c0.08,0.99,0.55,1.91,1.31,2.55c0.99,0.9,2.25,1.67,3.2,2.39L55.23,84.67z"/>
<path class="st0" d="M70.39,84.7c0.36,0.33,0.7,0.69,0.99,1.08l0.18,0.29l0,0c-0.14,0.44-0.45,0.8-0.86,1.01
	c-0.21,0.14-0.42,0.26-0.65,0.36h-0.23l0,0c-0.69,0.22-1.07,0.95-0.85,1.64c0.01,0.02,0.01,0.03,0.02,0.05
	c0.16,0.47,0.57,0.82,1.06,0.9c0.2,0.04,0.41,0.04,0.61,0c0.55-0.19,1.07-0.45,1.56-0.77c1.05-0.63,1.77-1.67,2.01-2.86
	c0.01-0.07,0.01-0.15,0-0.23c0.01-0.95-0.38-1.86-1.06-2.52c-0.83-0.97-1.94-1.87-2.77-2.73c-0.35-0.33-0.65-0.69-0.92-1.08
	c-0.06-0.1-0.11-0.21-0.16-0.32l0,0c-0.01-0.07-0.01-0.14,0-0.2c0.83-0.82,1.78-1.5,2.82-2.03c0.63-0.36,1.24-0.7,1.76-1.06
	c0.26-0.19,0.51-0.4,0.74-0.63c0.3-0.31,0.5-0.7,0.56-1.13c0.1-1.04-0.3-2.06-1.08-2.75c-0.63-0.65-1.37-1.19-2.12-1.83
	c-0.55-0.47-1.37-0.4-1.84,0.15c-0.01,0.01-0.02,0.02-0.03,0.03c-0.47,0.56-0.4,1.4,0.16,1.87c0.81,0.68,1.53,1.22,1.92,1.62
	c0.12,0.1,0.21,0.23,0.29,0.36c-0.29,0.23-0.6,0.43-0.92,0.61c-0.81,0.5-1.87,1.06-2.82,1.74c-1.11,0.61-1.92,1.64-2.25,2.86
	c-0.07,0.99,0.27,1.96,0.92,2.7c0.88,0.99,1.82,1.94,2.82,2.82L70.39,84.7z"/>
<polygon class="st0" points="87.11,124.7 97.66,124.7 97.66,120.19 87.11,120.19 87.11,124.7 "/>
<polygon class="st0" points="72.31,124.7 85.9,124.7 85.9,119.7 72.31,119.7 72.31,124.7 "/>
<path class="st0" d="M103.03,100.56c-0.07,0.76-0.19,1.51-0.34,2.25c-1.03,4.94-3.63,9.41-7.41,12.76c-0.56,0.5-1.15,0.97-1.74,1.42
	c-2.32,1.43-4.78,2.61-7.35,3.52c-0.5,0.14-1.04,0.23-1.56,0.32c2.04,0.64,4.17,0.97,6.31,0.97c4.18-0.02,8.27-1.27,11.74-3.61
	c0.3-0.06,0.57-0.24,0.74-0.5c0.54-0.41,1.08-0.83,1.58-1.28c3.43-2.99,5.8-7.02,6.76-11.47c0.29-1.44,0.44-2.9,0.43-4.37
	L103.03,100.56z"/>
<path class="st0" d="M89.8,97.88c-0.09,0.89-0.22,1.78-0.41,2.66l0,0c-1.07,5.18-3.7,9.9-7.55,13.52l-0.59,0.56
	c-0.5,0.43-1.01,0.83-1.56,1.26h-0.16c-0.32,0.31-0.7,0.57-1.1,0.77c-0.42,0.27-0.86,0.52-1.31,0.74H77
	c-1.78,1.11-3.69,2.01-5.68,2.66h-0.45c2.44,0.85,5.01,1.29,7.59,1.28c1.67-0.02,3.33-0.22,4.96-0.61c0.52,0,1.06-0.18,1.56-0.32
	c2.32-0.67,4.52-1.71,6.51-3.06c0.92-0.56,1.79-1.22,2.57-1.96c3.79-3.34,6.4-7.81,7.44-12.76c0.14-0.7,0.25-1.4,0.34-2.25
	c0.1-0.89,0.15-1.79,0.16-2.68L89.8,97.88z"/>
<path class="st0" d="M62.75,116.63h-0.18H62.3c-10.77,0-18.59-5.59-20.71-15.78c-0.18-0.87,0.37-1.72,1.24-1.92
	c0.85-0.18,1.69,0.37,1.86,1.23c0,0.01,0,0.02,0.01,0.04c1.23,6.86,6.82,12.1,13.75,12.89h0.79c1.02,0.15,2.04,0.22,3.06,0.23
	c0.87,0,1.58,0.71,1.58,1.58c0,0.01,0,0.02,0,0.02c-0.01,0.69-0.47,1.28-1.13,1.46L62.75,116.63z M36.84,95.24
	c0,14.26,11.56,25.83,25.83,25.83c0.03,0,0.06,0,0.09,0c2.28,0,4.56-0.31,6.76-0.92h0.45c1.95-0.7,3.85-1.56,5.68-2.55
	c0.05,0.01,0.11,0.01,0.16,0c0,0,0.88-0.45,1.31-0.74l1.1-0.77c0.05-0.01,0.11-0.01,0.16,0c0.52-0.43,1.06-0.83,1.56-1.26l0.56-0.56
	c3.83-3.58,6.48-8.25,7.57-13.39l0,0c0.18-0.88,0.32-1.77,0.41-2.66c0.09-0.88,0.14-1.76,0.14-2.64L36.84,95.24z"/>
<path class="st0" d="M108.19,44.6l-1.04-0.65l-1.22,1.94l0.99,0.63c0.22,0.11,0.46,0.2,0.7,0.27c0.19,0.08,0.4,0.08,0.59,0
	c0.2-0.11,0.37-0.26,0.5-0.45c0.18-0.25,0.25-0.56,0.2-0.86C108.86,45.24,108.61,44.87,108.19,44.6z M22.19,67.77
	c-0.26-0.17-0.58-0.22-0.88-0.16c-0.33,0.16-0.59,0.44-0.72,0.79l-0.56,1.1l2.03,1.04l0.54-1.04c0.08-0.24,0.15-0.48,0.2-0.72
	c0.04-0.2,0-0.4-0.11-0.56C22.57,68.02,22.4,67.86,22.19,67.77z M58.7,150.41c-0.57-0.19-1.19-0.09-1.67,0.27
	c-0.66,0.59-1.11,1.38-1.28,2.25c-0.31,0.81-0.37,1.69-0.16,2.52c0.41,1.03,1.58,1.53,2.61,1.12c0.13-0.05,0.25-0.12,0.37-0.19
	c0.64-0.61,1.09-1.39,1.28-2.25c0.31-0.76,0.35-1.6,0.14-2.39C59.81,151.11,59.32,150.61,58.7,150.41z M133.36,83.95
	c0.09,0.17,0.25,0.3,0.43,0.36c0.22,0.06,0.45,0.06,0.68,0c0.3-0.06,0.58-0.23,0.77-0.47c0.15-0.35,0.15-0.74,0-1.08l-0.27-1.17
	l-2.25,0.52l0.27,1.15C133.08,83.5,133.21,83.73,133.36,83.95z M95.05,149.92c-0.51-0.34-1.16-0.41-1.74-0.18
	c-0.57,0.19-1.02,0.64-1.19,1.22c-0.14,0.83-0.02,1.69,0.34,2.46c0.18,0.88,0.65,1.67,1.33,2.25c0.96,0.58,2.2,0.28,2.79-0.68
	c0.07-0.11,0.12-0.22,0.16-0.34c0.15-0.9,0.03-1.82-0.34-2.66c-0.19-0.82-0.65-1.55-1.31-2.07H95.05z M116.37,52
	c-0.81,0.27-1.53,0.77-2.07,1.44c-0.64,0.55-1.1,1.28-1.33,2.1c-0.12,0.55,0.06,1.13,0.47,1.51c0.39,0.4,0.97,0.56,1.51,0.43
	c0.89-0.28,1.68-0.82,2.25-1.56c0.61-0.53,1.04-1.24,1.24-2.03c0.16-0.89-0.44-1.75-1.33-1.91c-0.22-0.04-0.44-0.03-0.65,0.02
	H116.37z M131.17,54.41c-13.16-18.19-33.51-25.94-48.86-27.74c-22.65-2.15-44.97,6.6-60.13,23.57C10.39,63.76,4.03,81.18,4.36,99.12
	c0.21,6.24,1.18,12.43,2.88,18.43c1.93,5.71,4.56,11.16,7.82,16.23c0,0,1.42-17.2,3.22-20.71c8.34,3.85,16.52,7.12,16.52,7.12
	c-9.69-16.5-8.28-37.26,3.54-52.31c16.14-20.21,45.6-23.51,65.82-7.38c15.49,12.37,21.52,33.15,15.04,51.88
	c0,0-2.88,12.28-16.65,22.54c-8.19,6.04-18.14,9.21-28.31,9.01c0,0-19.99-0.32-33.58-15.14l-0.29-0.23l3.31-2.25
	c0,0-6.49-2.25-12.46-4.51s-11.27-4.87-11.27-4.87s-1.33,9.28-1.74,13.77c-0.41,4.48-0.9,13.97-0.9,13.97l3.34-2.25
	c24.96,30,69.53,34.09,99.53,9.12c2.73-2.27,5.29-4.75,7.65-7.41c7.99-8.95,13.51-19.82,16.05-31.55
	C148.39,92.25,144.31,72.68,131.17,54.41z M11.73,104.37l-0.47-7.46l2.39-0.16l0.32,4.67h1.78l-0.32-4.35l2.25-0.14l0.27,4.33
	l2.25-0.14l-0.27-4.91l2.55-0.14l0.47,7.57L11.73,104.37z M23.18,88.82l-3.79,1.35l3.38,2.25l-0.36,3.09l-5.5-3.85l-5.66,2.25
	l0.34-3.04l3.63-1.17l-3.25-1.96l0.34-3l5.09,3.31l6.11-2.25L23.18,88.82z M23.83,84.85l-10.66-3.29l1.35-4.51
	c0.18-0.84,0.74-1.54,1.51-1.92c0.86-0.32,1.8-0.32,2.66,0c0.92,0.24,1.72,0.8,2.25,1.58c0.47,0.81,0.53,1.79,0.18,2.66l-0.43,1.46
	l3.99,1.22L23.83,84.85z M29.26,71.06l-3.74-0.25c-0.33-0.07-0.66-0.07-0.99,0c-0.24,0.09-0.43,0.27-0.54,0.5v0.2l4.06,2.1
	l-1.35,2.52l-10.07-5.14l2.25-4.12c0.27-0.61,0.65-1.16,1.13-1.62c0.4-0.33,0.9-0.51,1.42-0.52c0.64-0.01,1.27,0.15,1.83,0.47
	c0.5,0.24,0.94,0.58,1.28,1.01c0.29,0.38,0.48,0.82,0.56,1.28c0.08,0.36,0.08,0.73,0,1.08c0.21-0.18,0.45-0.33,0.7-0.45L26.54,68
	c0.26-0.02,0.53-0.02,0.79,0l3.52,0.29L29.26,71.06z M31.29,67.57l-9.01-6.76l4.51-5.93l1.92,1.46l-2.84,3.72l1.42,1.08l2.64-3.45
	l1.83,1.4l-2.57,3.36l1.76,1.35l2.93-3.83l2.01,1.56L31.29,67.57z M41.05,56.3c-0.24,0.72-0.68,1.35-1.26,1.83
	c-0.77,0.89-1.91,1.39-3.09,1.35c-1-0.19-1.92-0.68-2.64-1.4l1.8-1.94c0.31,0.3,0.68,0.52,1.08,0.65c0.49,0.15,1.01,0.02,1.37-0.34
	c0.27-0.21,0.42-0.52,0.43-0.86c0.04-0.62-0.43-1.16-1.06-1.19c0,0,0,0,0,0c-0.53,0.03-1.04,0.19-1.49,0.47
	c-0.85,0.52-1.84,0.79-2.84,0.77c-0.79-0.06-1.53-0.43-2.05-1.04c-0.39-0.42-0.67-0.93-0.81-1.49c-0.18-0.56-0.18-1.16,0-1.71
	c0.27-0.71,0.73-1.34,1.33-1.83c0.64-0.7,1.53-1.13,2.48-1.19c0.95,0.04,1.85,0.45,2.5,1.15l-1.8,1.89
	c-0.29-0.27-0.66-0.45-1.06-0.5c-0.34-0.02-0.67,0.11-0.9,0.36c-0.4,0.28-0.5,0.82-0.22,1.22c0.03,0.04,0.06,0.07,0.09,0.11
	c0.13,0.11,0.3,0.18,0.47,0.2c0.34-0.02,0.68-0.13,0.97-0.32c0.82-0.46,1.7-0.82,2.61-1.06c0.56-0.1,1.14-0.04,1.67,0.16
	c0.54,0.21,1.01,0.54,1.4,0.97c0.48,0.51,0.83,1.13,1.01,1.8c0.18,0.6,0.17,1.25-0.02,1.85L41.05,56.3z M48.51,51.03
	c-0.37,0.65-0.91,1.2-1.56,1.58c-0.91,0.76-2.13,1.05-3.29,0.79c-0.92-0.36-1.71-1-2.25-1.83l2.1-1.6c0.26,0.34,0.59,0.63,0.97,0.83
	c0.43,0.26,0.97,0.26,1.4,0c0.3-0.17,0.52-0.47,0.59-0.81c0.12-0.59-0.25-1.17-0.83-1.33c-0.53-0.07-1.06,0-1.56,0.2
	c-0.93,0.36-1.95,0.46-2.93,0.27c-0.78-0.2-1.44-0.71-1.85-1.4c-0.31-0.48-0.5-1.03-0.54-1.6c-0.05-0.59,0.08-1.17,0.36-1.69
	c0.4-0.65,0.96-1.18,1.62-1.56c0.75-0.57,1.7-0.84,2.64-0.74c0.92,0.21,1.73,0.76,2.25,1.56l-2.1,1.58
	c-0.25-0.32-0.59-0.56-0.97-0.7c-0.34-0.07-0.69,0.02-0.97,0.23c-0.24,0.13-0.41,0.35-0.47,0.61c-0.05,0.23,0,0.46,0.14,0.65
	c0.09,0.16,0.25,0.26,0.43,0.29c0.34,0.04,0.68-0.01,0.99-0.14c0.88-0.33,1.81-0.53,2.75-0.59c0.58-0.02,1.15,0.13,1.65,0.43
	c0.48,0.31,0.89,0.72,1.19,1.19c0.37,0.59,0.61,1.26,0.68,1.96c0.02,0.61-0.13,1.21-0.45,1.74L48.51,51.03z M76.95,41.54
	c-1,1.41-2.95,1.75-4.37,0.75c-0.29-0.21-0.54-0.46-0.75-0.75c-0.75-0.9-1.15-2.03-1.13-3.2c-0.02-1.14,0.35-2.26,1.06-3.16
	c0.57-0.84,1.51-1.35,2.52-1.37c1.02,0.01,1.98,0.48,2.61,1.28c0.73,0.9,1.12,2.04,1.1,3.2C78.05,39.47,77.68,40.62,76.95,41.54z
	 M44.12,153.84l2.25-3.94l-2.95-1.74l-2.25,3.97l-2.7-1.58l5.66-9.76l2.7,1.58l-2.1,3.4l2.97,1.74l1.98-3.43l2.7,1.58l-5.66,9.76
	L44.12,153.84z M62.84,154.94c-0.28,1.09-0.8,2.1-1.51,2.97c-0.6,0.67-1.38,1.16-2.25,1.4c-0.96,0.21-1.96,0.16-2.88-0.16
	c-0.93-0.29-1.77-0.8-2.46-1.49c-0.61-0.62-1.02-1.4-1.19-2.25c-0.17-1.13-0.07-2.28,0.32-3.36c0.34-1.52,1.27-2.84,2.57-3.7
	c1.25-0.72,2.76-0.86,4.12-0.36c1.37,0.34,2.53,1.24,3.2,2.48c0.56,1.43,0.56,3.03,0,4.46H62.84z M74.95,153.36l-3.18-0.25
	l-0.7,8.45l-3.13-0.25l0.72-8.47l-3.18-0.27l0.23-2.77l9.49,0.79L74.95,153.36z M85.65,155.62c-0.68,0.78-1.65,1.25-2.68,1.28
	l-1.71,0.2l0.5,4.17l-3.22,0.43l-1.33-11.27l5.18-0.63c0.93-0.17,1.88,0.05,2.64,0.61c0.69,0.63,1.1,1.5,1.15,2.43
	c0.21,0.97,0.03,1.99-0.52,2.82V155.62z M99.87,154.13c-0.09,0.92-0.46,1.78-1.06,2.48c-0.64,0.76-1.49,1.31-2.43,1.6
	c-0.92,0.36-1.91,0.48-2.88,0.36c-0.85-0.18-1.64-0.6-2.25-1.22c-0.81-0.79-1.41-1.78-1.74-2.86c-0.57-1.45-0.57-3.06,0-4.51
	c0.59-1.33,1.74-2.33,3.13-2.75c1.35-0.55,2.88-0.5,4.19,0.14c1.3,0.82,2.26,2.08,2.68,3.56c0.36,1.05,0.48,2.17,0.36,3.27V154.13z
	 M107.24,153l-4.51-7.26l-2.7,1.67l-1.46-2.37l8.14-4.98l1.44,2.39l-2.57,1.74l4.51,7.23L107.24,153z M137.62,82.87
	c0.19,0.64,0.25,1.32,0.18,1.98c-0.08,0.51-0.34,0.98-0.74,1.31c-0.48,0.41-1.05,0.7-1.67,0.83c-0.54,0.12-1.1,0.12-1.65,0
	c-0.47-0.09-0.91-0.3-1.28-0.61c-0.27-0.24-0.49-0.52-0.65-0.83c-0.04,0.27-0.12,0.54-0.25,0.79c-0.12,0.22-0.28,0.41-0.47,0.56
	c-0.17,0.21-0.37,0.39-0.59,0.54l-2.86,2.05l-0.72-3.04l3.02-2.25c0.29-0.17,0.53-0.4,0.72-0.68c0.09-0.23,0.09-0.49,0-0.72v-0.25
	l-4.51,1.04l-0.63-2.73l10.95-2.55L137.62,82.87z M108.75,49.07c-0.36,0.03-0.72-0.02-1.06-0.14c0.17,0.22,0.3,0.46,0.38,0.72
	c0.03,0.25,0.03,0.5,0,0.74c0.02,0.27,0.02,0.54,0,0.81l-0.61,3.47l-2.66-1.67l0.59-3.72c0.05-0.33,0.05-0.66,0-0.99
	c-0.07-0.24-0.23-0.45-0.45-0.59l-0.2-0.14l-2.43,3.88l-2.25-1.49l5.99-9.53l3.88,2.55c0.58,0.32,1.1,0.76,1.51,1.28
	c0.3,0.42,0.44,0.93,0.41,1.44c-0.13,1.21-0.77,2.31-1.76,3.02c-0.4,0.27-0.85,0.42-1.33,0.45V49.07z M114,60.09
	c-0.86-0.16-1.65-0.58-2.25-1.22c-0.66-0.61-1.14-1.39-1.4-2.25c-0.17-0.78-0.14-1.6,0.11-2.37c0.42-1.05,1.06-1.99,1.87-2.77
	c0.98-1.18,2.34-1.98,3.85-2.25c1.31-0.18,2.62,0.29,3.52,1.26c1.01,0.87,1.56,2.16,1.46,3.49c-0.21,1.5-0.94,2.88-2.07,3.9
	c-0.73,0.84-1.63,1.51-2.64,1.98c-0.77,0.35-1.62,0.47-2.46,0.34L114,60.09z M117.63,65.52l6.94-4.85l-1.62-2.25l2.25-1.6l4.85,6.94
	l-2.25,1.6l-1.62-2.25l-6.96,4.67L117.63,65.52z M121.05,70.41l11.56-1.71l1.26,2.75l-8.83,7.78l-1.22-2.66l1.51-1.17l-1.31-2.88
	l-1.89,0.38L121.05,70.41z M132.01,123.93c-0.44,0.9-1.27,1.54-2.25,1.74c-1.13,0.27-2.32,0.12-3.36-0.41
	c-1.04-0.45-1.9-1.25-2.43-2.25c-0.46-0.91-0.46-1.99,0-2.91c0.43-0.9,1.27-1.55,2.25-1.74c2.33-0.49,4.71,0.65,5.79,2.77
	c0.4,0.86,0.43,1.84,0,2.68V123.93z M132.62,95.94l-4.71,0.18v-2.77l4.71-0.2l6.4-3.76l0.02,3.18l-3.74,1.94l3.88,1.69l0.2,3
	L132.62,95.94z M17.91,77.91c-0.31-0.11-0.64-0.11-0.95,0c-0.35,0.18-0.59,0.51-0.65,0.9l-0.25,0.77l2.41,0.74l0.2-0.65
	c0.18-0.38,0.18-0.82,0-1.19c-0.16-0.29-0.44-0.51-0.77-0.59L17.91,77.91z M82.81,152.51c-0.37-0.23-0.82-0.3-1.24-0.2h-0.88
	l0.29,2.5h0.77c0.48,0.01,0.94-0.17,1.28-0.5c0.21-0.26,0.29-0.6,0.25-0.92C83.24,153.04,83.07,152.73,82.81,152.51z M130.65,71.24
	l-4.08,0.81l0.81,1.8L130.65,71.24z"/>
<path class="st0" d="M75.01,22.7C33.94,22.75,0.69,56.09,0.74,97.17c0.02,15.4,4.82,30.41,13.74,42.97l0.25-2.5
	C-7.46,104.41,1.48,59.49,34.7,37.3s78.15-13.25,100.34,19.97s13.25,78.15-19.97,100.34c-29.99,20.03-70.15,14.92-94.16-12
	l-1.37,0.92c27.32,30.67,74.33,33.39,105,6.07s33.39-74.33,6.07-105C116.47,31.75,96.25,22.69,75.01,22.7z"/>
<path class="st0" d="M337.85,99.44h-8.25c-1.04,0.07-2.07-0.25-2.88-0.9c-0.64-0.57-0.99-1.4-0.97-2.25
	c-0.04-0.89,0.3-1.75,0.95-2.37c0.83-0.64,1.86-0.96,2.91-0.9h8.25c1.04-0.06,2.07,0.26,2.88,0.9c0.67,0.6,1.03,1.47,0.97,2.37
	c0.03,0.86-0.32,1.69-0.97,2.25C339.94,99.21,338.9,99.53,337.85,99.44"/>
<path class="st0" d="M313.58,111.63V80.8c-0.1-1.3,0.27-2.59,1.06-3.63c0.7-0.78,1.7-1.22,2.75-1.19c1.08-0.04,2.11,0.4,2.84,1.19
	c0.8,1.03,1.18,2.33,1.08,3.63v30.83c0.11,1.3-0.28,2.58-1.08,3.61c-0.72,0.8-1.76,1.24-2.84,1.19c-1.04,0.03-2.04-0.41-2.73-1.19
	C313.87,114.2,313.49,112.92,313.58,111.63"/>
<path class="st0" d="M281.35,80.8v11.27h16.7V80.8c-0.09-1.29,0.28-2.58,1.04-3.63c1.5-1.55,3.96-1.59,5.51-0.1
	c0.03,0.03,0.07,0.07,0.1,0.1c0.8,1.03,1.18,2.33,1.08,3.63v30.83c0.11,1.3-0.28,2.58-1.08,3.61c-0.71,0.8-1.75,1.24-2.82,1.19
	c-1.06,0.04-2.09-0.4-2.79-1.19c-0.75-1.04-1.12-2.32-1.04-3.61V98.47h-16.7v13.16c0.11,1.3-0.28,2.58-1.08,3.61
	c-0.72,0.8-1.75,1.23-2.82,1.19c-1.07,0.05-2.1-0.39-2.79-1.19c-0.76-1.04-1.13-2.32-1.04-3.61V80.8c-0.11-1.3,0.26-2.59,1.04-3.63
	c0.7-0.8,1.73-1.24,2.79-1.19c1.07-0.03,2.1,0.4,2.82,1.19C281.07,78.2,281.46,79.5,281.35,80.8"/>
<path class="st0" d="M265.89,103.42c-0.03,1.39-0.33,2.76-0.88,4.03c-0.69,1.58-1.65,3.03-2.84,4.28c-1.38,1.47-3.05,2.62-4.91,3.38
	c-2.22,0.92-4.61,1.36-7.01,1.31c-1.85,0.02-3.69-0.17-5.5-0.56c-1.59-0.38-3.11-0.99-4.51-1.83c-1.4-0.88-2.65-1.98-3.7-3.27
	c-1.02-1.27-1.86-2.66-2.52-4.15c-0.74-1.54-1.28-3.17-1.62-4.85c-0.35-1.82-0.52-3.67-0.52-5.52c-0.04-2.88,0.41-5.74,1.33-8.47
	c0.83-2.4,2.12-4.6,3.81-6.49c1.65-1.73,3.65-3.09,5.86-4.01c2.27-0.93,4.71-1.41,7.17-1.4c2.87-0.06,5.7,0.6,8.25,1.92
	c2.21,1.08,4.12,2.68,5.57,4.66c1.18,1.52,1.85,3.37,1.94,5.3c0,0.88-0.34,1.73-0.95,2.37c-0.55,0.68-1.38,1.07-2.25,1.06
	c-0.82,0.08-1.63-0.18-2.25-0.72c-0.63-0.72-1.14-1.54-1.53-2.41c-0.8-1.73-2.03-3.22-3.56-4.35c-1.48-1.01-3.25-1.52-5.05-1.44
	c-2.98-0.1-5.81,1.29-7.57,3.7c-2.07,3.11-3.07,6.82-2.84,10.55c-0.08,2.59,0.35,5.17,1.24,7.59c1.32,3.8,5,6.26,9.01,6.04
	c2.02,0.06,4.01-0.54,5.66-1.71c1.62-1.28,2.83-3,3.47-4.96c0.26-0.91,0.67-1.77,1.22-2.55c0.56-0.66,1.39-1.02,2.25-0.97
	c0.85,0.02,1.66,0.36,2.25,0.97c0.64,0.66,0.99,1.56,0.97,2.48"/>
<path class="st0" d="M216.34,111.63V80.8c-0.1-1.31,0.3-2.6,1.1-3.63c0.68-0.79,1.68-1.23,2.73-1.19c1.07-0.03,2.11,0.4,2.84,1.19
	c0.79,1.04,1.17,2.33,1.06,3.63v30.83c0.11,1.29-0.26,2.58-1.06,3.61c-0.72,0.8-1.76,1.24-2.84,1.19c-1.04,0.04-2.05-0.4-2.73-1.19
	C216.63,114.21,216.24,112.93,216.34,111.63"/>
<path class="st0" d="M183.8,80.8v13.7l15.19-16.23c0.55-0.64,1.17-1.22,1.85-1.74c0.61-0.4,1.33-0.59,2.05-0.56
	c1-0.04,1.98,0.32,2.7,1.01c0.68,0.62,1.06,1.51,1.04,2.43c-0.08,1.34-0.72,2.58-1.76,3.43l-9.4,9.15l10.82,15.78
	c0.67,0.91,1.25,1.89,1.74,2.91c0.37,0.75,0.57,1.57,0.59,2.41c-0.03,0.86-0.39,1.67-1.01,2.25c-0.76,0.65-1.73,0.98-2.73,0.92
	c-0.92,0.05-1.84-0.2-2.61-0.7c-0.71-0.49-1.3-1.13-1.74-1.87l-1.26-2.25l-9.01-14.42l-6.33,6.22v8.11c0.08,1.29-0.3,2.57-1.08,3.61
	c-0.73,0.79-1.76,1.23-2.84,1.19c-0.67,0-1.33-0.18-1.92-0.52c-0.59-0.34-1.07-0.84-1.37-1.44c-0.27-0.42-0.46-0.87-0.59-1.35
	c0-0.7,0-1.62,0-2.88V80.8c-0.09-1.29,0.26-2.57,1.01-3.63c0.71-0.8,1.75-1.24,2.82-1.19c1.08-0.04,2.11,0.4,2.84,1.19
	c0.8,1.03,1.19,2.33,1.08,3.63"/>
<path class="st0" d="M483.64,111.63V80.8c-0.1-1.31,0.3-2.6,1.1-3.63c0.69-0.79,1.7-1.23,2.75-1.19c1.07-0.03,2.1,0.4,2.82,1.19
	c0.8,1.03,1.18,2.33,1.08,3.63v30.83c0.11,1.3-0.28,2.58-1.08,3.61c-0.71,0.8-1.75,1.24-2.82,1.19c-1.05,0.04-2.06-0.4-2.75-1.19
	C483.94,114.21,483.54,112.93,483.64,111.63"/>
<path class="st0" d="M451.46,80.8v11.27h16.72V80.8c-0.1-1.29,0.27-2.58,1.04-3.63c1.48-1.54,3.94-1.59,5.48-0.11
	c0.04,0.04,0.07,0.07,0.11,0.11c0.81,1.03,1.2,2.32,1.08,3.63v30.83c0.12,1.3-0.27,2.59-1.08,3.61c-0.72,0.8-1.75,1.23-2.82,1.19
	c-1.06,0.05-2.08-0.39-2.77-1.19c-0.76-1.04-1.13-2.32-1.04-3.61V98.47h-16.72v13.16c0.12,1.3-0.27,2.6-1.1,3.61
	c-1.48,1.54-3.94,1.59-5.48,0.11c-0.04-0.04-0.07-0.07-0.11-0.11c-0.76-1.04-1.13-2.32-1.04-3.61V80.8
	c-0.1-1.29,0.27-2.58,1.04-3.63c0.7-0.81,1.73-1.25,2.79-1.19c1.06-0.04,2.09,0.4,2.79,1.19C451.18,78.19,451.58,79.49,451.46,80.8"
	/>
<path class="st0" d="M436.02,103.42c-0.04,1.39-0.34,2.75-0.88,4.03c-0.69,1.58-1.65,3.03-2.84,4.28c-1.39,1.46-3.07,2.61-4.94,3.38
	c-2.21,0.92-4.59,1.36-6.99,1.31c-1.85,0.02-3.69-0.17-5.5-0.56c-1.59-0.37-3.11-0.99-4.51-1.83c-1.4-0.89-2.64-1.99-3.7-3.27
	c-2.12-2.61-3.56-5.71-4.19-9.01c-0.37-1.82-0.55-3.67-0.54-5.52c-0.05-2.88,0.4-5.75,1.33-8.47c0.84-2.4,2.16-4.6,3.88-6.47
	c1.66-1.72,3.65-3.09,5.86-4.01c2.27-0.93,4.71-1.41,7.17-1.4c2.87-0.05,5.71,0.6,8.27,1.92c2.2,1.08,4.1,2.68,5.54,4.66
	c1.17,1.53,1.84,3.38,1.92,5.3c0,0.88-0.33,1.72-0.92,2.37c-0.55,0.68-1.38,1.07-2.25,1.06c-0.82,0.06-1.62-0.2-2.25-0.72
	c-0.66-0.75-1.21-1.58-1.65-2.48c-0.81-1.72-2.03-3.22-3.56-4.35c-1.48-1.01-3.25-1.52-5.05-1.44c-2.99-0.1-5.83,1.28-7.59,3.7
	c-2.09,3.14-3.08,6.88-2.82,10.64c-0.09,2.59,0.32,5.17,1.22,7.59c1.32,3.8,5,6.26,9.01,6.04c2.02,0.08,4-0.53,5.63-1.71
	c1.63-1.26,2.84-2.99,3.47-4.96c0.27-0.91,0.69-1.77,1.24-2.55c0.56-0.66,1.39-1.02,2.25-0.97c0.89-0.02,1.74,0.33,2.37,0.97
	c0.65,0.66,1.01,1.55,0.99,2.48"/>
<path class="st0" d="M386.49,111.63V80.8c-0.1-1.3,0.27-2.59,1.06-3.63c0.69-0.79,1.7-1.23,2.75-1.19c1.07-0.03,2.11,0.4,2.84,1.19
	c0.8,1.03,1.18,2.33,1.08,3.63v30.83c0.11,1.3-0.28,2.58-1.08,3.61c-0.72,0.8-1.76,1.24-2.84,1.19c-1.05,0.03-2.06-0.41-2.75-1.19
	C386.76,114.2,386.39,112.92,386.49,111.63"/>
<path class="st0" d="M353.9,80.8v13.7l15.19-16.23c0.56-0.64,1.19-1.22,1.87-1.74c0.61-0.4,1.33-0.59,2.05-0.56
	c1-0.05,1.97,0.32,2.68,1.01c0.68,0.62,1.06,1.51,1.04,2.43c-0.07,1.33-0.7,2.58-1.74,3.43L365.6,92l10.82,15.78
	c0.66,0.92,1.24,1.89,1.74,2.91c0.36,0.75,0.55,1.58,0.56,2.41c0,0.86-0.37,1.68-1.01,2.25c-0.75,0.64-1.72,0.97-2.7,0.92
	c-0.93,0.05-1.85-0.2-2.64-0.7c-0.69-0.5-1.28-1.14-1.71-1.87c-0.5-0.79-0.9-1.49-1.26-2.25l-9.15-14.15l-6.36,6.22v8.11
	c0.11,1.3-0.28,2.58-1.08,3.61c-0.72,0.79-1.75,1.23-2.82,1.19c-0.67,0.01-1.32-0.17-1.89-0.52c-0.6-0.34-1.09-0.84-1.42-1.44
	c-0.25-0.54-0.4-1.12-0.45-1.71c0-0.7,0-1.62,0-2.88V80.8c-0.1-1.29,0.27-2.58,1.04-3.63c0.7-0.8,1.73-1.24,2.79-1.19
	c1.07-0.03,2.1,0.4,2.82,1.19c0.8,1.03,1.19,2.33,1.08,3.63"/>
<path class="st0" d="M495.2,76.27c-2.31,0.07-4.25-1.74-4.32-4.05c-0.07-2.31,1.74-4.25,4.05-4.32s4.25,1.74,4.32,4.05
	c0,0.05,0,0.1,0,0.16c0.04,2.26-1.77,4.13-4.03,4.17C495.22,76.27,495.21,76.27,495.2,76.27 M495.2,68.58
	c-1.94-0.06-3.56,1.46-3.63,3.4s1.46,3.56,3.4,3.63c1.94,0.06,3.56-1.46,3.63-3.4c0-0.04,0-0.07,0-0.11
	c0.04-1.9-1.48-3.48-3.38-3.52C495.22,68.58,495.21,68.58,495.2,68.58"/>
<path class="st0" d="M494.14,71.85h1.13c0.19,0.03,0.38,0.03,0.56,0c0.12-0.06,0.23-0.14,0.32-0.25c0.06-0.11,0.1-0.23,0.11-0.36
	c0-0.18-0.09-0.36-0.23-0.47c-0.17-0.15-0.4-0.22-0.63-0.2h-1.26V71.85z M493.65,74.1v-4.08h1.8c0.26-0.05,0.53-0.05,0.79,0
	c0.19,0.07,0.35,0.2,0.45,0.38c0.11,0.18,0.17,0.39,0.16,0.61c-0.01,0.26-0.1,0.52-0.27,0.72c-0.23,0.22-0.54,0.35-0.86,0.38
	c0.12,0.04,0.24,0.1,0.34,0.18c0.17,0.16,0.31,0.34,0.43,0.54l0.7,1.08h-0.65l-0.56-0.83c-0.11-0.19-0.23-0.37-0.36-0.54
	c-0.07-0.11-0.15-0.21-0.25-0.29h-0.23h-0.92v1.78L493.65,74.1z"/>
</svg>
