<svg width="180" height="180" viewBox="0 0 180 180" fill="none" xmlns="http://www.w3.org/2000/svg">
    <path d="M90 11.25C110.886 11.25 130.916 19.5469 145.685 34.3153C160.453 49.0838 168.75 69.1142 168.75 90C168.75 110.886 160.453 130.916 145.685 145.685C130.916 160.453 110.886 168.75 90 168.75C69.1142 168.75 49.0838 160.453 34.3153 145.685C19.5469 130.916 11.25 110.886 11.25 90C11.25 69.1142 19.5469 49.0838 34.3153 34.3153C49.0838 19.5469 69.1142 11.25 90 11.25ZM80.19 105.536L62.6963 88.0312C62.0691 87.4041 61.3246 86.9066 60.5052 86.5672C59.6858 86.2278 58.8075 86.0531 57.9206 86.0531C57.0337 86.0531 56.1555 86.2278 55.3361 86.5672C54.5167 86.9066 53.7721 87.4041 53.145 88.0312C51.8784 89.2978 51.1669 91.0157 51.1669 92.8069C51.1669 94.5981 51.8784 96.3159 53.145 97.5825L75.42 119.858C76.0454 120.488 76.7893 120.988 77.609 121.329C78.4286 121.671 79.3077 121.847 80.1956 121.847C81.0835 121.847 81.9626 121.671 82.7823 121.329C83.6019 120.988 84.3459 120.488 84.9713 119.858L131.096 73.7212C131.732 73.0967 132.237 72.3525 132.584 71.5316C132.93 70.7107 133.111 69.8293 133.115 68.9383C133.119 68.0472 132.947 67.1642 132.608 66.3401C132.269 65.516 131.771 64.7672 131.141 64.1367C130.511 63.5063 129.763 63.0068 128.939 62.667C128.115 62.3272 127.233 62.1538 126.342 62.1569C125.451 62.16 124.569 62.3395 123.748 62.685C122.926 63.0305 122.182 63.5352 121.556 64.17L80.19 105.536Z" fill="#FFBC88"/>
</svg>
